<?xml version="1.0" encoding="UTF-8"?>
<svg xmlns="http://www.w3.org/2000/svg" xmlns:xlink="http://www.w3.org/1999/xlink" width="90pt" height="89.999999pt" viewBox="0 0 90 89.999999" version="1.2">
<defs>
<clipPath id="clip1">
  <path d="M 1.640625 37 L 88.640625 37 L 88.640625 66.457031 L 1.640625 66.457031 Z M 1.640625 37 "/>
</clipPath>
<clipPath id="clip2">
  <path d="M 86 40 L 88.640625 40 L 88.640625 44 L 86 44 Z M 86 40 "/>
</clipPath>
<clipPath id="clip3">
  <path d="M 50 23.753906 L 52 23.753906 L 52 32 L 50 32 Z M 50 23.753906 "/>
</clipPath>
</defs>
<g id="surface1">
<path style=" stroke:none;fill-rule:evenodd;fill:rgb(0%,0%,0%);fill-opacity:1;" d="M 52.539062 38.019531 C 52.46875 37.957031 52.652344 38.113281 52.539062 38.019531 Z M 52.539062 38.019531 "/>
<path style=" stroke:none;fill-rule:evenodd;fill:rgb(0%,0%,0%);fill-opacity:1;" d="M 65.917969 44.632812 C 65.847656 44.574219 66.03125 44.730469 65.917969 44.632812 Z M 65.917969 44.632812 "/>
<path style=" stroke:none;fill-rule:evenodd;fill:rgb(0%,0%,0%);fill-opacity:1;" d="M 18.574219 52.871094 C 18.828125 52.382812 19.003906 53.445312 18.574219 52.871094 Z M 18.574219 52.871094 "/>
<path style=" stroke:none;fill-rule:evenodd;fill:rgb(0%,0%,0%);fill-opacity:1;" d="M 36.074219 58.3125 C 36 58.25 36.1875 58.40625 36.074219 58.3125 Z M 36.074219 58.3125 "/>
<g clip-path="url(#clip1)" clip-rule="nonzero">
<path style=" stroke:none;fill-rule:evenodd;fill:rgb(0%,0%,0%);fill-opacity:1;" d="M 48.9375 52.132812 C 45.628906 52.828125 44.214844 55.929688 41.21875 56.398438 C 39.78125 57.175781 38.433594 58.03125 36.761719 58.605469 C 36.863281 58.058594 37.519531 57.984375 37.785156 57.574219 C 37.011719 57.742188 36.3125 58 35.902344 57.574219 C 34.808594 57.960938 33.984375 58.582031 33.328125 59.339844 C 35.078125 61.945312 38.695312 63.445312 39.332031 66.546875 C 37.855469 66.90625 36.957031 66.085938 36.246094 65.367188 C 35.65625 65.308594 35.726562 65.8125 35.386719 65.957031 C 32.589844 65.5625 31.621094 63.597656 30.242188 61.988281 C 28.175781 62.609375 25.917969 62.5 24.753906 61.253906 C 22.980469 62.59375 21.960938 60.851562 20.808594 59.78125 C 20.105469 59.925781 19.398438 60.753906 18.75 60.074219 C 17.09375 61.746094 14.800781 62.867188 12.402344 63.898438 C 11.976562 63.921875 11.871094 63.667969 11.542969 63.605469 C 9.785156 64.597656 8.308594 63.363281 6.742188 64.515625 C 6.800781 64.722656 7.042969 64.53125 7.082031 64.371094 C 6.589844 65.660156 4.070312 66.828125 1.765625 66.28125 C 1.890625 65.984375 2.285156 65.683594 2.625 65.988281 C 5.410156 61.710938 10.558594 60.652344 14.117188 56.546875 C 15.941406 56.003906 16.285156 54.191406 18.40625 53.898438 C 19.234375 52.664062 20.675781 52.347656 21.835938 51.695312 C 22.308594 52.269531 23.40625 51.648438 23.378906 52.429688 C 24.117188 52.496094 23.597656 52.03125 23.894531 51.988281 C 25.601562 52.027344 26.511719 52.914062 26.8125 53.75 C 27.316406 53.140625 28.140625 53.488281 28.871094 52.722656 C 30.046875 51.484375 30.945312 49.488281 32.46875 47.871094 C 34.238281 45.996094 35.636719 44.300781 37.617188 43.164062 C 37.828125 42.855469 38.09375 42.59375 38.300781 42.285156 C 38.863281 42.273438 38.957031 41.863281 39.675781 41.988281 C 40.859375 41.046875 42.230469 42 43.273438 42.429688 C 45.410156 42.601562 46.355469 41.519531 47.394531 40.078125 C 47.695312 40.210938 47.894531 40.429688 48.25 40.519531 C 48.046875 40.113281 47.878906 39.902344 48.082031 39.488281 C 48.804688 39.375 49.410156 39.15625 49.796875 38.753906 C 50.429688 38.773438 50.226562 38.964844 50.136719 39.34375 C 50.984375 39.132812 50.9375 38.164062 51.855469 38.015625 C 51.832031 38.28125 52.0625 38.328125 52.023438 38.605469 C 52.652344 38.316406 53.324219 38.054688 53.742188 37.574219 C 54.179688 37.589844 54.019531 38.125 54.257812 38.3125 C 55.546875 37.777344 56.859375 39.152344 58.199219 39.488281 C 58.117188 40.609375 59.011719 40.320312 60.085938 40.960938 C 60.671875 41.308594 60.992188 41.984375 61.457031 42.285156 C 61.609375 42.375 61.980469 42.203125 62.144531 42.285156 C 63.390625 42.878906 63.832031 44.054688 65.0625 44.046875 C 65.5 45.140625 66.972656 45.351562 67.289062 46.546875 C 69.015625 47.078125 69.53125 48.644531 71.234375 49.195312 C 72.429688 51.402344 75.238281 52.234375 76.382812 54.488281 C 78.402344 56.304688 83.160156 58.609375 84.164062 60.8125 C 86.050781 62.132812 87.945312 63.453125 88.792969 65.660156 C 87.328125 64.863281 85.597656 64.289062 84.679688 63.015625 C 82.460938 62.671875 81.371094 62.625 79.703125 61.253906 C 79.125 61.199219 76.953125 61.890625 76.722656 62.132812 C 74.347656 61.320312 72.855469 58.441406 70.378906 59.046875 C 70.074219 58.667969 69.730469 58.324219 69.351562 58.015625 C 68.898438 57.976562 68.613281 58.070312 68.664062 58.457031 C 68.160156 58.449219 68.027344 58.121094 67.804688 57.871094 C 66.964844 58.277344 65.898438 58.488281 65.230469 59.046875 C 63.757812 58.597656 63.367188 57.101562 62.316406 56.691406 C 62.539062 56.347656 62.230469 56.367188 62.660156 56.105469 C 61.210938 56.222656 59.578125 54.839844 58.199219 54.929688 C 58.167969 55.054688 58.269531 55.070312 58.371094 55.078125 C 58.089844 55.242188 57.796875 55.101562 57.167969 55.078125 C 55.375 56.328125 52.476562 53.6875 50.996094 53.019531 C 50.148438 52.628906 49.464844 52.726562 48.945312 52.132812 Z M 35.902344 62.28125 C 36.050781 62.644531 36.058594 63.132812 36.585938 63.164062 C 36.394531 62.84375 36.390625 62.351562 35.902344 62.28125 Z M 53.742188 38.019531 C 52.859375 38.375 54.332031 38.398438 53.742188 38.019531 Z M 56.484375 39.929688 C 56.257812 39.953125 55.96875 39.332031 55.800781 39.785156 C 55.90625 39.867188 56.316406 40.382812 56.484375 39.929688 Z M 48.421875 40.078125 C 48.945312 40.480469 47.953125 39.632812 48.421875 40.078125 Z M 52.710938 40.8125 C 52.761719 40.511719 53.171875 40.523438 53.222656 40.222656 C 52.992188 40.175781 52.898438 40.015625 52.539062 40.078125 C 52.632812 40.292969 52.339844 40.839844 52.710938 40.8125 Z M 47.394531 40.960938 C 47.746094 41.089844 48.164062 40.578125 47.738281 40.519531 C 47.722656 40.75 47.300781 40.632812 47.394531 40.960938 Z M 54.082031 41.695312 C 54.257812 41.695312 54.285156 41.8125 54.425781 41.839844 C 54.410156 41.613281 54.449219 41.335938 54.082031 41.402344 Z M 47.050781 41.695312 C 47.164062 41.792969 46.980469 41.632812 47.050781 41.695312 Z M 52.023438 42.871094 L 52.367188 42.871094 C 52.558594 42.660156 52.554688 42.511719 52.195312 42.429688 C 52.1875 42.617188 51.976562 42.632812 52.027344 42.871094 Z M 55.96875 42.726562 C 56.082031 42.824219 55.898438 42.664062 55.96875 42.726562 Z M 49.796875 43.3125 C 49.992188 43.894531 49.992188 42.730469 49.796875 43.3125 Z M 46.191406 43.753906 L 46.535156 43.753906 L 46.535156 43.460938 L 46.191406 43.460938 L 46.191406 43.757812 Z M 49.28125 44.050781 C 49.632812 44.179688 50.050781 43.667969 49.621094 43.609375 C 49.441406 44.105469 49.570312 43.199219 49.109375 43.460938 C 49.097656 43.714844 49.148438 43.917969 49.28125 44.050781 Z M 45.507812 44.929688 C 45.347656 44.390625 46.378906 44.121094 45.851562 43.753906 C 45.65625 43.988281 44.953125 44.539062 45.507812 44.929688 Z M 63.859375 44.050781 C 64.289062 44.621094 64.109375 43.558594 63.859375 44.050781 Z M 65.0625 44.929688 C 65.097656 44.460938 64.773438 44.292969 64.378906 44.195312 C 64.386719 44.625 64.769531 44.742188 65.0625 44.929688 Z M 58.714844 45.667969 C 58.828125 45.761719 58.644531 45.605469 58.714844 45.667969 Z M 55.285156 45.960938 C 54.765625 46.457031 55.917969 46.40625 55.285156 45.960938 Z M 54.597656 49.636719 C 54.796875 50.214844 54.796875 49.058594 54.597656 49.636719 Z M 65.234375 50.667969 C 65.648438 51.421875 65.675781 50.160156 65.234375 50.667969 Z M 48.421875 51.253906 L 48.765625 51.253906 L 48.765625 50.960938 L 48.421875 50.960938 Z M 35.726562 51.253906 C 35.929688 51.835938 35.929688 50.671875 35.726562 51.253906 Z M 65.746094 51.253906 C 65.859375 51.351562 65.675781 51.191406 65.746094 51.253906 Z M 24.066406 53.902344 C 24.179688 53.996094 23.992188 53.839844 24.066406 53.902344 Z M 24.578125 54.195312 C 25.082031 54.414062 25.082031 53.539062 24.578125 53.753906 Z M 75.867188 54.339844 C 75.980469 54.4375 75.796875 54.28125 75.867188 54.339844 Z M 41.734375 54.929688 L 42.074219 54.929688 L 42.074219 54.636719 L 41.734375 54.636719 Z M 58.027344 54.785156 C 58.144531 54.882812 57.957031 54.722656 58.027344 54.785156 Z M 38.988281 55.371094 C 39.445312 55.273438 39.863281 55.140625 40.1875 54.929688 C 39.9375 54.753906 39.089844 54.964844 38.988281 55.371094 Z M 38.476562 55.519531 C 38.898438 56.09375 38.726562 55.03125 38.476562 55.519531 Z M 37.785156 56.105469 C 38.367188 56.550781 38.308594 55.566406 37.785156 56.105469 Z M 38.128906 57.28125 C 38.242188 57.378906 38.058594 57.222656 38.128906 57.28125 Z M 24.578125 58.019531 L 24.578125 57.578125 L 24.066406 57.578125 C 24.035156 57.894531 24.207031 58.046875 24.578125 58.019531 Z M 33.328125 58.605469 C 33.757812 58.386719 33.976562 57.988281 34.183594 57.578125 C 33.753906 57.703125 32.875 58.210938 33.328125 58.605469 Z M 72.4375 57.871094 C 72.167969 57.859375 72.304688 57.496094 71.925781 57.578125 C 71.773438 57.882812 72.367188 58.238281 72.4375 57.871094 Z M 20.980469 58.457031 C 21.179688 58.503906 21.410156 59.238281 21.664062 58.753906 C 21.398438 58.714844 21.546875 58.429688 21.664062 58.3125 C 21.4375 58.121094 21.023438 58.121094 20.980469 58.457031 Z M 19.433594 59.78125 C 19.96875 59.796875 20.253906 59.601562 20.632812 59.488281 C 20.675781 59.210938 20.441406 59.164062 20.464844 58.902344 C 19.71875 58.851562 19.5625 59.308594 19.433594 59.78125 Z M 74.324219 60.078125 C 74.351562 59.710938 74.058594 59.617188 73.808594 59.488281 C 73.777344 59.855469 74.070312 59.949219 74.324219 60.078125 Z M 76.382812 61.253906 C 75.742188 60.824219 75.824219 59.773438 74.667969 59.785156 C 74.339844 60.523438 75.992188 61.5625 76.382812 61.253906 Z M 29.039062 60.8125 C 28.582031 60.71875 28.386719 60.390625 28.011719 60.222656 C 28.015625 60.621094 28.671875 61.210938 29.039062 60.8125 Z M 22.691406 60.664062 C 22.566406 61.117188 23.164062 60.949219 23.035156 61.398438 C 23.445312 61.304688 23.835938 61.203125 23.894531 60.8125 C 23.738281 60.554688 23.574219 60.300781 23.035156 60.371094 C 23.003906 60.535156 22.847656 60.597656 22.691406 60.664062 Z M 14.460938 62.28125 L 15.316406 62.28125 C 15.269531 61.84375 15.796875 61.386719 15.144531 61.253906 C 15.097656 61.75 14.476562 61.757812 14.460938 62.28125 Z M 12.570312 63.457031 C 12.605469 63.222656 13.148438 62.699219 12.742188 62.578125 C 12.707031 62.953125 11.859375 63.28125 12.570312 63.457031 Z M 12.570312 63.457031 "/>
</g>
<path style=" stroke:none;fill-rule:evenodd;fill:rgb(0%,0%,0%);fill-opacity:1;" d="M 46.539062 31.5625 C 46.460938 31.484375 46.660156 31.6875 46.539062 31.5625 Z M 46.539062 31.5625 "/>
<path style=" stroke:none;fill-rule:evenodd;fill:rgb(0%,0%,0%);fill-opacity:1;" d="M 68.792969 32.886719 C 69.488281 33.457031 68.214844 33.523438 68.792969 32.886719 Z M 68.792969 32.886719 "/>
<path style=" stroke:none;fill-rule:evenodd;fill:rgb(0%,0%,0%);fill-opacity:1;" d="M 68.222656 33.640625 C 68.144531 33.5625 68.347656 33.765625 68.222656 33.640625 Z M 68.222656 33.640625 "/>
<path style=" stroke:none;fill-rule:evenodd;fill:rgb(0%,0%,0%);fill-opacity:1;" d="M 68.601562 33.832031 C 68.820312 33.082031 68.820312 34.578125 68.601562 33.832031 Z M 68.601562 33.832031 "/>
<path style=" stroke:none;fill-rule:evenodd;fill:rgb(0%,0%,0%);fill-opacity:1;" d="M 68.414062 34.207031 C 67.871094 34.609375 68.210938 35.894531 67.847656 36.476562 C 67.179688 36.308594 67.382812 36.453125 66.714844 36.285156 C 66.789062 35.109375 67.132812 33.585938 68.414062 34.207031 Z M 68.414062 34.207031 "/>
<path style=" stroke:none;fill-rule:evenodd;fill:rgb(0%,0%,0%);fill-opacity:1;" d="M 26.925781 35.910156 C 27.265625 35.882812 27.324219 36.136719 27.679688 36.097656 C 27.742188 36.429688 26.625 36.433594 26.925781 35.910156 Z M 26.925781 35.910156 "/>
<path style=" stroke:none;fill-rule:evenodd;fill:rgb(0%,0%,0%);fill-opacity:1;" d="M 75.582031 36.851562 C 75.796875 36.105469 75.796875 37.597656 75.582031 36.851562 Z M 75.582031 36.851562 "/>
<path style=" stroke:none;fill-rule:evenodd;fill:rgb(0%,0%,0%);fill-opacity:1;" d="M 27.117188 37.039062 C 27.039062 36.960938 27.238281 37.164062 27.117188 37.039062 Z M 27.117188 37.039062 "/>
<path style=" stroke:none;fill-rule:evenodd;fill:rgb(0%,0%,0%);fill-opacity:1;" d="M 27.492188 36.851562 C 28.667969 38.007812 29.277344 39.726562 30.699219 40.628906 C 30.507812 40.882812 30.519531 41.332031 30.132812 41.386719 C 28.691406 40.503906 28.03125 38.832031 26.925781 37.609375 C 26.871094 37.113281 27.65625 37.460938 27.492188 36.851562 Z M 27.492188 36.851562 "/>
<path style=" stroke:none;fill-rule:evenodd;fill:rgb(0%,0%,0%);fill-opacity:1;" d="M 84.066406 37.417969 C 83.988281 37.894531 83.421875 38.289062 83.125 37.988281 C 83.253906 37.613281 83.625 37.480469 84.066406 37.417969 Z M 84.066406 37.417969 "/>
<path style=" stroke:none;fill-rule:evenodd;fill:rgb(0%,0%,0%);fill-opacity:1;" d="M 82.371094 39.121094 C 82.289062 39.039062 82.492188 39.242188 82.371094 39.121094 Z M 82.371094 39.121094 "/>
<path style=" stroke:none;fill-rule:evenodd;fill:rgb(0%,0%,0%);fill-opacity:1;" d="M 82.933594 39.6875 C 82.753906 40.183594 82.023438 40.757812 81.425781 40.253906 C 81.324219 39.097656 82.339844 39.296875 82.933594 39.6875 Z M 82.933594 39.6875 "/>
<path style=" stroke:none;fill-rule:evenodd;fill:rgb(0%,0%,0%);fill-opacity:1;" d="M 16.367188 39.496094 C 16.832031 40.492188 17.96875 40.902344 17.6875 42.144531 C 17.132812 42.105469 15.984375 40.941406 16.742188 40.820312 C 16.707031 40.667969 16.554688 40.628906 16.554688 40.441406 C 15.21875 40.65625 16.621094 42.214844 16.554688 42.332031 C 15.429688 42.863281 15.148438 39.445312 16.367188 39.496094 Z M 16.367188 39.496094 "/>
<path style=" stroke:none;fill-rule:evenodd;fill:rgb(0%,0%,0%);fill-opacity:1;" d="M 15.613281 39.875 C 15.445312 39.992188 15.273438 40.105469 15.234375 39.875 C 15.28125 39.636719 15.609375 39.683594 15.613281 39.875 Z M 15.613281 39.875 "/>
<path style=" stroke:none;fill-rule:evenodd;fill:rgb(0%,0%,0%);fill-opacity:1;" d="M 15.046875 40.820312 C 14.882812 40.164062 15.335938 40.171875 15.613281 40.441406 C 15.53125 40.675781 15.371094 40.832031 15.046875 40.820312 Z M 15.046875 40.820312 "/>
<path style=" stroke:none;fill-rule:evenodd;fill:rgb(0%,0%,0%);fill-opacity:1;" d="M 30.507812 41.953125 C 31.140625 41.496094 30.054688 42.589844 30.507812 41.953125 Z M 30.507812 41.953125 "/>
<path style=" stroke:none;fill-rule:evenodd;fill:rgb(0%,0%,0%);fill-opacity:1;" d="M 16.367188 42.898438 C 16.289062 42.820312 16.488281 43.019531 16.367188 42.898438 Z M 16.367188 42.898438 "/>
<path style=" stroke:none;fill-rule:evenodd;fill:rgb(0%,0%,0%);fill-opacity:1;" d="M 86.707031 43.464844 C 86.628906 43.386719 86.828125 43.589844 86.707031 43.464844 Z M 86.707031 43.464844 "/>
<path style=" stroke:none;fill-rule:evenodd;fill:rgb(0%,0%,0%);fill-opacity:1;" d="M 73.128906 43.652344 C 73.050781 43.574219 73.25 43.777344 73.128906 43.652344 Z M 73.128906 43.652344 "/>
<path style=" stroke:none;fill-rule:evenodd;fill:rgb(0%,0%,0%);fill-opacity:1;" d="M 66.339844 43.84375 C 66.613281 43.214844 66.808594 44.578125 66.339844 43.84375 Z M 66.339844 43.84375 "/>
<path style=" stroke:none;fill-rule:evenodd;fill:rgb(0%,0%,0%);fill-opacity:1;" d="M 7.691406 45.164062 C 7.554688 45.742188 7.882812 45.851562 7.878906 46.296875 C 6.878906 46.113281 6.410156 45.714844 5.617188 44.976562 C 5.78125 44.425781 5.898438 44.761719 6.371094 44.785156 C 5.894531 45.332031 7.019531 44.90625 7.691406 45.164062 Z M 7.691406 45.164062 "/>
<path style=" stroke:none;fill-rule:evenodd;fill:rgb(0%,0%,0%);fill-opacity:1;" d="M 8.632812 46.296875 L 9.011719 46.296875 C 8.941406 46.621094 9.160156 46.65625 9.390625 46.675781 C 9.289062 46.828125 9.191406 46.980469 9.199219 47.242188 C 8.945312 47.273438 8.824219 46.28125 8.632812 46.863281 C 8.300781 46.726562 8.605469 46.519531 8.632812 46.296875 Z M 8.632812 46.296875 "/>
<path style=" stroke:none;fill-rule:evenodd;fill:rgb(0%,0%,0%);fill-opacity:1;" d="M 32.019531 30.808594 C 33.304688 32.476562 34.996094 33.746094 35.226562 36.476562 C 33.414062 35.199219 31.875 32.390625 32.019531 30.808594 Z M 32.019531 30.808594 "/>
<path style=" stroke:none;fill-rule:evenodd;fill:rgb(0%,0%,0%);fill-opacity:1;" d="M 75.011719 37.609375 C 73.726562 37.832031 73.882812 39.5 72.5625 39.6875 C 72.839844 37.308594 75.421875 35.628906 76.523438 33.453125 C 77.054688 33.609375 77.011719 33.183594 77.464844 33.261719 C 76.902344 35.664062 75.25 35.78125 75.011719 37.609375 Z M 75.011719 37.609375 "/>
<g clip-path="url(#clip2)" clip-rule="nonzero">
<path style=" stroke:none;fill-rule:evenodd;fill:rgb(0%,0%,0%);fill-opacity:1;" d="M 86.894531 42.523438 C 87.34375 41.898438 87.550781 41.039062 88.40625 40.820312 C 88.386719 41.527344 88.191406 41.359375 88.40625 41.953125 C 87.90625 42.210938 87.644531 42.703125 87.273438 43.085938 C 86.878906 43.03125 87.550781 42.578125 86.894531 42.523438 Z M 86.894531 42.523438 "/>
</g>
<g clip-path="url(#clip3)" clip-rule="nonzero">
<path style=" stroke:none;fill-rule:evenodd;fill:rgb(0%,0%,0%);fill-opacity:1;" d="M 51.621094 28.339844 C 50.75 29.464844 51.898438 30.402344 50.976562 31.535156 C 49.730469 29.816406 50.722656 26.773438 50.246094 24.550781 C 50.761719 24.242188 50.464844 24.007812 50.867188 23.707031 C 51.90625 25.660156 50.683594 26.996094 51.621094 28.339844 Z M 51.621094 28.339844 "/>
</g>
<path style=" stroke:none;fill-rule:evenodd;fill:rgb(0%,0%,0%);fill-opacity:1;" d="M 42.300781 32.832031 C 42.082031 32.09375 41.53125 31.402344 41.878906 30.59375 C 42.425781 31.039062 42.175781 31.09375 42.777344 31.285156 C 42.671875 31.839844 42.902344 32.347656 42.976562 32.878906 C 42.691406 33.15625 42.746094 32.34375 42.300781 32.832031 Z M 42.300781 32.832031 "/>
<path style=" stroke:none;fill-rule:evenodd;fill:rgb(0%,0%,0%);fill-opacity:1;" d="M 57.65625 32.542969 C 58.023438 31.871094 58.121094 30.992188 58.9375 30.664062 C 59.011719 31.371094 58.796875 31.230469 59.082031 31.792969 C 58.621094 32.109375 58.421875 32.628906 58.101562 33.058594 C 57.707031 33.054688 58.316406 32.515625 57.65625 32.542969 Z M 57.65625 32.542969 "/>
<path style=" stroke:none;fill-rule:evenodd;fill:rgb(0%,0%,0%);fill-opacity:1;" d="M 59.839844 28.402344 C 60.207031 27.726562 60.304688 26.84375 61.121094 26.519531 C 61.195312 27.222656 60.980469 27.085938 61.265625 27.644531 C 60.804688 27.964844 60.605469 28.484375 60.289062 28.914062 C 59.890625 28.90625 60.5 28.371094 59.839844 28.402344 Z M 59.839844 28.402344 "/>
<path style=" stroke:none;fill-rule:evenodd;fill:rgb(0%,0%,0%);fill-opacity:1;" d="M 35.390625 64.667969 C 38.558594 64.078125 40.980469 62.210938 43.382812 60.066406 C 45.210938 58.429688 44.835938 58.503906 47.914062 59.589844 C 47.914062 59.589844 53.121094 62.757812 54.023438 64.523438 C 52.410156 64.410156 48.359375 63.964844 47.132812 63.890625 C 45.566406 63.800781 45.167969 64.21875 43.492188 64.835938 C 40.734375 65.855469 40.746094 65.378906 38.277344 65.757812 "/>
<path style=" stroke:none;fill-rule:evenodd;fill:rgb(0%,0%,0%);fill-opacity:1;" d="M 41.769531 64.761719 C 42.300781 64.773438 42.589844 64.578125 42.96875 64.464844 C 43.007812 64.1875 42.777344 64.140625 42.796875 63.878906 "/>
<path style=" stroke:none;fill-rule:evenodd;fill:rgb(0%,0%,0%);fill-opacity:1;" d="M 41.945312 63.972656 C 41.65625 64.214844 41.363281 64.523438 41.382812 64.929688 C 42.042969 65.109375 42.585938 64.199219 41.808594 64.054688 "/>
</g>
</svg>
